<svg width="26" height="26" viewBox="0 0 26 26" fill="none" xmlns="http://www.w3.org/2000/svg">
<path fill-rule="evenodd" clip-rule="evenodd" d="M12.3753 2.49965L4.12592 9.09916C3.41427 9.66848 3 10.5304 3 11.4418V21.9999C3 23.1045 3.89543 23.9999 5 23.9999H21C22.1046 23.9999 23 23.1045 23 21.9999V11.4418C23 10.5304 22.5857 9.66848 21.8741 9.09916L13.6247 2.49965C13.2595 2.20747 12.7405 2.20747 12.3753 2.49965ZM9 17.9999C8.44772 17.9999 8 18.4476 8 18.9999C8 19.5522 8.44772 19.9999 9 19.9999H17C17.5523 19.9999 18 19.5522 18 18.9999C18 18.4476 17.5523 17.9999 17 17.9999H9Z" fill="#808080"/>
</svg>
