<svg width="26" height="26" viewBox="0 0 26 26" fill="none" xmlns="http://www.w3.org/2000/svg">
<path d="M9 18C8.44771 18 8 18.4477 8 19C8 19.5523 8.44772 20 9 20H17C17.5523 20 18 19.5523 18 19C18 18.4477 17.5523 18 17 18H9Z" fill="#808080"/>
<path fill-rule="evenodd" clip-rule="evenodd" d="M12.3753 2.49965L4.12592 9.09916C3.41427 9.66848 3 10.5304 3 11.4418V21.9999C3 23.1045 3.89543 23.9999 5 23.9999H21C22.1046 23.9999 23 23.1045 23 21.9999V11.4418C23 10.5304 22.5857 9.66848 21.8741 9.09916L13.6247 2.49965C13.2595 2.20747 12.7405 2.20747 12.3753 2.49965ZM4.93802 10.1143L13 3.6647L21.062 10.1143C21.4652 10.4369 21.7 10.9253 21.7 11.4418V21.9999C21.7 22.3865 21.3866 22.6999 21 22.6999H5C4.6134 22.6999 4.3 22.3865 4.3 21.9999V11.4418C4.3 10.9253 4.53475 10.4369 4.93802 10.1143Z" fill="#808080"/>
</svg>
