<svg width="26" height="26" viewBox="0 0 26 26" fill="none" xmlns="http://www.w3.org/2000/svg">
<path fill-rule="evenodd" clip-rule="evenodd" d="M25 6C25 6.18972 24.9894 6.37698 24.9689 6.56121C24.5479 10.4521 20 14.9999 20 14.9999C20 14.9999 15.4521 10.4521 15.0311 6.56121C15.0106 6.37698 15 6.18972 15 6C15 3.2386 17.2386 1 20 1C22.7614 1 25 3.2386 25 6ZM22 6C22 7.10457 21.1046 8 20 8C18.8954 8 18 7.10457 18 6C18 4.89543 18.8954 4 20 4C21.1046 4 22 4.89543 22 6Z" fill="#808080"/>
<path fill-rule="evenodd" clip-rule="evenodd" d="M20 16.8384L20.9818 15.8555C21.0192 15.8172 21.0724 15.7621 21.1393 15.6916C21.2731 15.5506 21.462 15.3473 21.6889 15.0921C22.0501 14.6856 22.511 14.1433 23 13.5075V20C23 21.6569 21.6569 23 20 23H6C4.34315 23 3 21.6569 3 20V6C3 4.34315 4.34315 3 6 3H14.4587C13.9748 3.89196 13.7 4.91386 13.7 5.99994C13.7 6.23721 13.7131 6.47192 13.7389 6.70325C13.9894 9.01178 15.4154 11.3577 16.6248 13.008C17.2495 13.8605 17.8584 14.5828 18.3111 15.0921C18.5379 15.3473 18.7268 15.5506 18.8606 15.6916C18.9275 15.7621 18.9807 15.8172 19.0181 15.8555C19.2422 16.0833 19.4687 16.3088 19.6951 16.5344C19.7967 16.6355 19.8986 16.737 20 16.8384ZM9.08759 16.4286V17.8H11.4234C11.3066 18.3714 10.7226 19.5143 9.08759 19.5143C7.68613 19.5143 6.57664 18.3714 6.57664 17C6.57664 15.6286 7.68613 14.4857 9.08759 14.4857C9.90511 14.4857 10.4307 14.8286 10.7226 15.1143L11.8321 14.0857C11.1314 13.4 10.1971 13 9.08759 13C6.81022 13 5 14.7714 5 17C5 19.2286 6.81022 21 9.08759 21C11.4234 21 13 19.4 13 17.1143C13 16.8286 13 16.6571 12.9416 16.4286H9.08759Z" fill="#808080"/>
</svg>
