<svg width="16" height="16" viewBox="0 0 16 16" fill="none" xmlns="http://www.w3.org/2000/svg">
<path d="M12.9 5.3C12.9 5 13 4.8 13 4.5C13 3.1 11.9 2 10.5 2C10.4 2 10.3 2 10.2 2C9.7 1.4 8.9 1 8 1C7.1 1 6.3 1.4 5.8 2C5.7 2 5.6 2 5.5 2C4.1 2 3 3.1 3 4.5C3 4.8 3.1 5 3.1 5.3C1.8 6.7 1 8.7 1 11C1 12.5 1.3 13.8 1.9 15H5.7C4.7 14 4 12.4 4 10.5C4 10.3 4 10.2 4 10C6 10 7.8 8.8 8.5 7C9.2 8.1 10.4 8.9 11.8 9C12 9.5 12 10 12 10.5C12 12.4 11.3 14 10.3 15H14.1C14.7 13.8 15 12.5 15 11C15 8.7 14.2 6.7 12.9 5.3ZM5.5 3H5.7L6.2 3.1L6.5 2.7C6.9 2.2 7.4 2 8 2C8.6 2 9.1 2.2 9.5 2.7L9.8 3.1L10.5 3C11.3 3 12 3.7 12 4.5C12 4.7 12 4.8 11.9 5H4.1C4 4.8 4 4.7 4 4.5C4 3.7 4.7 3 5.5 3Z" fill="#808080"/>
</svg>
