<svg width="26" height="26" viewBox="0 0 26 26" fill="none" xmlns="http://www.w3.org/2000/svg">
<path fill-rule="evenodd" clip-rule="evenodd" d="M4 4C2.89543 4 2 4.89543 2 6V21C2 22.1046 2.89543 23 4 23H22C23.1046 23 24 22.1046 24 21V6C24 4.89543 23.1046 4 22 4H4ZM4 5.3H22C22.3866 5.3 22.7 5.6134 22.7 6V7.99863L13 13.5989L3.3 7.99866V6C3.3 5.6134 3.6134 5.3 4 5.3ZM3.3 9.49899V21C3.3 21.3866 3.6134 21.7 4 21.7H22C22.3866 21.7 22.7 21.3866 22.7 21V9.49895L13 15.0993L3.3 9.49899Z" fill="#808080"/>
</svg>
