<svg width="26" height="26" viewBox="0 0 26 26" fill="none" xmlns="http://www.w3.org/2000/svg">
<path d="M19 12V9H7V12H19Z" fill="#808080"/>
<path d="M19 14V15.3H7V14H19Z" fill="#808080"/>
<path d="M12.9961 17.3H7V18.6H12.9961V17.3Z" fill="#808080"/>
<path fill-rule="evenodd" clip-rule="evenodd" d="M13 4L9.5 2L6 4L3 2V22C3 23.1046 3.89543 24 5 24H21C22.1046 24 23 23.1046 23 22V2L20 4L16.5 2L13 4ZM5.9474 5.52734L9.5 3.49728L13 5.49728L16.5 3.49728L20.0526 5.52734L21.7 4.42907V22C21.7 22.3866 21.3866 22.7 21 22.7H5C4.6134 22.7 4.3 22.3866 4.3 22V4.42907L5.9474 5.52734Z" fill="#808080"/>
</svg>
