<svg width="16" height="16" viewBox="0 0 16 16" fill="none" xmlns="http://www.w3.org/2000/svg">
<path fill-rule="evenodd" clip-rule="evenodd" d="M1.63606 0.221924L0.928955 0.929031L15.0711 15.0712L15.7782 14.3641L14.9323 13.5181C14.9764 13.3529 15 13.1792 15 13.0001V3.00008C15 1.89551 14.1046 1.00008 13 1.00008H3C2.82084 1.00008 2.64718 1.02363 2.48196 1.06782L1.63606 0.221924ZM5.41421 4.00008L6.82568 5.41155V5.38289H7.96631C8.94287 5.38289 9.41553 5.91414 9.41553 6.71101C9.41553 7.09794 9.30299 7.42627 9.0752 7.66106L10.2206 8.80648C10.8282 8.32997 11.1577 7.59745 11.1577 6.71101C11.1577 5.12117 10.1069 4.00008 8.29053 4.00008H5.41421Z" fill="#808080"/>
<path d="M1.06775 2.48201C1.02356 2.64724 1 2.82091 1 3.00008V13.0001C1 14.1046 1.89542 15.0001 3 15.0001H13C13.1792 15.0001 13.3528 14.9765 13.5181 14.9323L7.99207 9.40633H6.82568V12.0001H5.13428V6.54854L1.06775 2.48201Z" fill="#808080"/>
</svg>
