<svg width="14" height="14" viewBox="0 0 14 14" fill="none" xmlns="http://www.w3.org/2000/svg">
<path d="M5.82568 4.38281V7.05078H6.97412C7.94287 7.05078 8.41553 6.50391 8.41553 5.71094C8.41553 4.91406 7.94287 4.38281 6.96631 4.38281H5.82568Z" fill="#808080"/>
<path fill-rule="evenodd" clip-rule="evenodd" d="M2 0C0.895416 0 0 0.895431 0 2V12C0 13.1046 0.895416 14 2 14H12C13.1046 14 14 13.1046 14 12V2C14 0.895431 13.1046 0 12 0H2ZM5.82568 11H4.13428V3H7.29053C9.10693 3 10.1577 4.12109 10.1577 5.71094C10.1577 7.30859 9.0874 8.40625 7.24756 8.40625H5.82568V11Z" fill="#808080"/>
</svg>
