<svg width="26" height="26" viewBox="0 0 26 26" fill="none" xmlns="http://www.w3.org/2000/svg">
<path fill-rule="evenodd" clip-rule="evenodd" d="M1.00005 13.0357C1.00871 16.0429 2.12361 18.7899 3.9592 20.8911C4.08854 21.0392 4.22146 21.184 4.35783 21.3255C4.57265 21.5485 4.79602 21.7631 5.02741 21.9689C5.1164 22.0481 5.20658 22.1259 5.29792 22.2025C7.26345 23.8492 9.76439 24.8779 12.5017 24.9897C12.667 24.9965 12.8331 24.9999 13 24.9999C13.167 24.9999 13.3331 24.9965 13.4985 24.9897C16.2359 24.8779 18.7367 23.8492 20.7022 22.2026C20.7934 22.1261 20.8835 22.0484 20.9724 21.9693C21.2039 21.7634 21.4273 21.5487 21.6423 21.3256C21.7788 21.1839 21.9119 21.0389 22.0414 20.8906C23.7804 18.8997 24.8723 16.3292 24.9895 13.5068C24.9965 13.3389 25 13.1701 25 13.0004C25 6.3732 19.6278 1.00098 13 1.00098C6.37327 1.00098 1 6.3732 1 13.0004C1 13.0122 1.00002 13.024 1.00005 13.0357ZM21.9401 18.8817C21.7287 19.2024 21.5005 19.511 21.2568 19.8063C21.1971 19.8787 21.1364 19.9502 21.0749 20.021C20.8702 19.6064 20.6346 19.2099 20.371 18.8344C19.2119 17.1836 17.5124 15.9399 15.5294 15.3603C15.1658 15.254 14.7925 15.1701 14.4114 15.11C14.4113 15.11 14.4114 15.11 14.4114 15.11C13.9516 15.0376 13.4802 15 13 15C12.5198 15 12.0484 15.0376 11.5887 15.11C11.5886 15.11 11.5887 15.11 11.5887 15.11C11.3784 15.1431 11.1706 15.1835 10.9655 15.2309C8.7709 15.7381 6.8835 17.0478 5.62914 18.8344C5.36553 19.2098 5.12988 19.6063 4.92521 20.0209C4.6124 19.6614 4.3232 19.2809 4.06002 18.8817C2.94749 17.1941 2.3 15.1729 2.3 13.0004C2.3 7.09128 7.09113 2.30098 13 2.30098C18.9098 2.30098 23.7 7.09121 23.7 13.0004C23.7 15.1729 23.0526 17.1942 21.9401 18.8817ZM14.3058 13.782C15.8738 13.2407 17 11.7519 17 10C17 7.79086 15.2091 6 13 6C10.7909 6 9 7.79086 9 10C9 11.7519 10.1262 13.2407 11.6942 13.782C12.1034 13.9233 12.5427 14 13 14C13 14 13 14 13 14C13.4573 14 13.8966 13.9233 14.3058 13.782ZM12.038 16.3595C9.26597 16.705 6.95151 18.5239 5.903 21.0079C5.99844 21.0925 6.0954 21.1755 6.19384 21.2567C8.04344 22.783 10.4147 23.6999 13 23.6999C15.7231 23.6999 18.2085 22.6829 20.0971 21.008C19.0419 18.5082 16.7047 16.6819 13.9092 16.3531C13.611 16.318 13.3076 16.3 13 16.3C12.6742 16.3 12.3531 16.3202 12.038 16.3595ZM13 12.7C14.4912 12.7 15.7 11.4912 15.7 10C15.7 8.50883 14.4912 7.3 13 7.3C11.5088 7.3 10.3 8.50883 10.3 10C10.3 11.4912 11.5088 12.7 13 12.7Z" fill="#808080"/>
</svg>
