<svg width="26" height="26" viewBox="0 0 26 26" fill="none" xmlns="http://www.w3.org/2000/svg">
<path fill-rule="evenodd" clip-rule="evenodd" d="M13 25C19.6274 25 25 19.6274 25 13C25 6.37258 19.6274 1 13 1C6.37258 1 1 6.37258 1 13C1 19.6274 6.37258 25 13 25ZM17 10C17 12.2091 15.2091 14 13 14C10.7909 14 9 12.2091 9 10C9 7.79086 10.7909 6 13 6C15.2091 6 17 7.79086 17 10ZM21.0747 20.0208C19.113 22.275 16.2229 23.7 12.9999 23.7C9.77699 23.7 6.88685 22.275 4.92517 20.0208C6.39388 17.0461 9.45797 15 12.9999 15C16.5419 15 19.606 17.0461 21.0747 20.0208Z" fill="#808080"/>
</svg>
