<svg width="26" height="26" viewBox="0 0 26 26" fill="none" xmlns="http://www.w3.org/2000/svg">
<path d="M12.1104 13.6675C11.9343 14.1253 11.8463 14.7402 11.8463 15.5122H13.8352L13.8663 15.0076C13.9232 14.4672 14.1485 13.9957 14.5422 13.5931L15.1715 12.9561C15.6635 12.4487 16.008 11.9882 16.2048 11.5746C16.4016 11.1555 16.5 10.7115 16.5 10.2428C16.5 9.21148 16.197 8.41457 15.591 7.85205C14.985 7.28402 14.133 7 13.035 7C11.9473 7 11.0875 7.2978 10.4556 7.89341C9.82889 8.48902 9.51036 9.3135 9.5 10.3668H11.7531C11.7634 9.92566 11.8825 9.58097 12.1104 9.3328C12.3435 9.07912 12.6517 8.95227 13.035 8.95227C13.843 8.95227 14.2469 9.41828 14.2469 10.3503C14.2469 10.6591 14.1693 10.9542 14.0139 11.2354C13.8585 11.5112 13.5451 11.8724 13.0738 12.3191C12.6077 12.7603 12.2865 13.2098 12.1104 13.6675Z" fill="#808080"/>
<path d="M11.9706 16.8326C11.7375 17.0698 11.621 17.3731 11.621 17.7426C11.621 18.1066 11.7349 18.4071 11.9628 18.6443C12.1959 18.8814 12.5015 19 12.8796 19C13.2577 19 13.5607 18.8814 13.7886 18.6443C14.0216 18.4071 14.1382 18.1066 14.1382 17.7426C14.1382 17.3731 14.0191 17.0698 13.7808 16.8326C13.5477 16.59 13.2473 16.4687 12.8796 16.4687C12.5118 16.4687 12.2088 16.59 11.9706 16.8326Z" fill="#808080"/>
<path fill-rule="evenodd" clip-rule="evenodd" d="M25 13C25 19.6274 19.6274 25 13 25C6.37258 25 1 19.6274 1 13C1 6.37258 6.37258 1 13 1C19.6274 1 25 6.37258 25 13ZM23.7 13C23.7 18.9094 18.9094 23.7 13 23.7C7.09055 23.7 2.3 18.9094 2.3 13C2.3 7.09055 7.09055 2.3 13 2.3C18.9094 2.3 23.7 7.09055 23.7 13Z" fill="#808080"/>
</svg>
