<svg width="26" height="26" viewBox="0 0 26 26" fill="none" xmlns="http://www.w3.org/2000/svg">
<path d="M22.6 15.8C22.9 14.9 23 14 23 13C23 12 22.9 11.1 22.6 10.2L23.7 9.3C24.1 9 24.2 8.4 24 8L22.9 6C22.6 5.6 22.1 5.4 21.7 5.6L20.3 6.1C19 4.8 17.3 3.8 15.5 3.3L15.3 1.8C15.2 1.3 14.8 1 14.3 1H12C11.5 1 11.1 1.3 11 1.8L10.8 3.3C8.70003 3.8 7.10002 4.7 5.80002 6.1L4.40002 5.6C3.90002 5.4 3.40002 5.6 3.20002 6L2.00002 8C1.80002 8.4 1.90002 9 2.30002 9.3L3.40002 10.2C3.10002 11.1 3.00002 12 3.00002 13C3.00002 14 3.10002 14.9 3.40002 15.8L2.30002 16.7C1.90002 17 1.80002 17.6 2.00002 18L3.10002 20C3.40002 20.4 3.90002 20.6 4.30002 20.4L5.70002 19.9C7.00002 21.2 8.70002 22.2 10.5 22.7L10.7 24.2C10.8 24.7 11.2 25 11.7 25H14C14.5 25 14.9 24.6 15 24.2L15.2 22.7C17.1 22.2 18.7 21.3 20 19.9L21.4 20.4C21.9 20.6 22.4 20.4 22.6 20L23.7 18C23.9 17.6 23.9 17 23.5 16.7L22.6 15.8ZM13 21.7C8.20002 21.7 4.30002 17.8 4.30002 13C4.30002 8.2 8.20002 4.3 13 4.3C17.8 4.3 21.7 8.2 21.7 13C21.7 17.8 17.8 21.7 13 21.7Z" fill="#808080"/>
</svg>
